# xmcd
# 
# Track frame offsets:
#     182
#     22950
#     36685
#     57790
#     71920
#     95197
#     107630
#     118265
#     137670
#     156217
#     174540
#     202522
# 
# Disc length: 2855
# 
# Revision: 25
# Processed by: cddbd v1.5.2PL0 Copyright (c) Steve Scherf et al.
# Submitted via: BonkEnc v1.0.6
# 
DISCID=aa0b250c
DTITLE=Kate Bush - Hounds Of Love
DYEAR=1985
DGENRE=Alternative
TTITLE0=Running Up That Hill (A Deal With God)
TTITLE1=Hounds Of Love
TTITLE2=The Big Sky
TTITLE3=Mother Stands For Comfort
TTITLE4=Cloudbusting
TTITLE5=And Dream Of Sheep
TTITLE6=Under Ice
TTITLE7=Waking The Witch
TTITLE8=Watching You Without Me
TTITLE9=Jig Of Life
TTITLE10=Hello Earth
TTITLE11=The Morning Fog
EXTD=
EXTT0=
EXTT1=
EXTT2=
EXTT3=
EXTT4=
EXTT5=
EXTT6=
EXTT7=
EXTT8=
EXTT9=
EXTT10=
EXTT11=
PLAYORDER=
